<?xml version="1.0" encoding="utf-8"?>
<!-- Generator: Adobe Illustrator 13.0.0, SVG Export Plug-In . SVG Version: 6.00 Build 14948)  -->
<svg version="1.2" baseProfile="tiny" id="Layer_1" xmlns="http://www.w3.org/2000/svg" xmlns:xlink="http://www.w3.org/1999/xlink"
	 x="0px" y="0px" width="140.5px" height="140px" viewBox="0 0 140.5 140" xml:space="preserve">
<g>
	<path fill-rule="evenodd" fill="#FFFFFF" d="M111.616,0c0.746,0,1.494,0,2.24,0c0.477,0.41,0.947,0.826,1.4,1.26
		c0,0.887,0,1.774,0,2.661c-8.429,6.35-16.341,12.916-23.384,21.144c-5.236,6.117-9.655,12.377-13.863,19.604
		c-1.331,2.287-2.967,5.353-4.899,6.301c-4.634,2.27-7.432-1.929-9.522-4.341c-3.028-3.495-5.044-5.811-7.981-9.241
		c-1.161-1.356-3.345-3.306-3.641-5.041c-0.633-3.71,2.074-6.548,6.021-5.741c2.017,0.413,3.801,2.907,5.461,4.341
		c1.94,1.677,3.71,3.102,5.46,4.341C79.066,19.446,92.906,7.289,111.616,0z"/>
	<path fill-rule="evenodd" fill="#FFFFFF" d="M113.856,0c0.467,0,0.933,0,1.4,0c0,0.42,0,0.84,0,1.26
		C114.804,0.826,114.333,0.41,113.856,0z"/>
	<path fill-rule="evenodd" fill="#FFFFFF" d="M34.743,70.853c0-20.677,0-41.354,0-62.031c1.102-4.855,8.741-3.5,14.702-3.5
		c12.075,0,25.314,0,35.986,0c-1.96,1.495-3.545,2.77-5.601,4.48c-1.131,0.94-4.183,4.421-5.462,4.761c-1.96,0.521-5.316,0-7.561,0
		c-7.813,0-15.29,0-22.824,0c0,16.85,0,33.699,0,50.549c2.523,0.417,6.02-0.137,8.542,0.281c-0.649,2.618-0.462,6.073-0.701,9.101
		C45.42,73.91,35.601,76.511,34.743,70.853z"/>
	<path fill-rule="evenodd" fill="#FFFFFF" d="M89.072,74.213c-0.231-3.036-0.084-6.451-0.841-8.961c2.147,0,4.295,0,6.441,0
		c0-7.537,0-15.185,0-22.964c0-2.276-0.506-5.539,0-7.562c0.313-1.251,2.957-3.797,4.201-5.041c1.886-1.885,3.517-3.592,4.9-5.041
		c0.113,0.026,0.14,0.141,0.28,0.14c-0.317,12.43-0.042,28.174,0,41.027c0.006,1.966,0.099,4.317-0.28,5.601
		C102.365,76.188,94.225,74.268,89.072,74.213z"/>
	<path fill-rule="evenodd" fill="#FFFFFF" d="M81.65,78.413c2.163,0.784,3.612,0.928,5.321,1.822c1.4,0.731,2.646,2.354,3.641,2.659
		c1.14,0.35,2.239-0.027,3.081,0.141c1.032,0.204,2.197,0.68,3.08,1.12c1.316,0.654,2.253,2.323,3.641,2.8
		c1.182,0.407,2.521,0.101,3.641,0.421c5.592,1.594,9.037,6.464,8.961,13.161c-0.034,3.11-1.251,6.466-2.099,9.382
		c-2.095,7.201-4.127,14.749-6.303,21.845c-1.125,3.672-2.338,7.32-6.44,7.981c-2.283,0.367-5.23,0-7.981,0c-2.7,0-5.274,0-7.841,0
		c-5.923,0-15.579,1.181-18.903-1.541c-1.277-1.045-2.505-3.616-3.641-5.46c-2.401-3.896-4.401-7.165-6.862-11.063
		c-1.135-1.799-2.744-3.552-3.359-5.602c-0.738-2.457-0.28-5.902-0.28-8.681c0-3.103-0.278-6.188,0-8.962
		c0.621-6.205,5.282-9.53,10.222-10.922c0.624-9.305-1.622-19.491,2.101-25.064c1.406-2.107,4.338-4.193,7.701-4.48
		C80.569,57.008,82.611,66.445,81.65,78.413z M78.851,96.897c0.219,2.676,1.641,7.713-1.82,7.562
		c-0.185-0.009-1.255-0.358-1.54-0.701c-0.908-1.086-0.561-6.6-0.561-8.82c0-7.302-0.14-12.104-0.14-18.765
		c0-5.273,0.702-11.222-4.902-10.501c-4.437,0.571-3.079,9.772-3.079,15.122c0,7.9,0,14.592,0,22.684c0,3.68,1.095,8.796-2.1,8.683
		c-3.123-0.112-1.946-5.336-1.821-8.683c0.113-3.022,0.047-5.729,0.28-7.981c-0.691-0.568-2.112-0.408-3.36-0.42
		c-3.457,1.156-2.941,5.577-2.941,10.363c0,2.745-0.443,6.146,0,8.12c0.315,1.401,1.878,3.074,2.801,4.621
		c2.847,4.772,5.519,9.891,8.401,13.862c9.615,0,19.23,0,28.846,0c2.027-7.143,4.512-16.764,6.581-24.504
		c1.259-4.714,3.681-11.134-1.541-12.742c-1.429-0.076-2.729-0.022-3.501,0.56c-1.123,3.243,1.201,10.796-2.66,10.922
		c-3.49,0.114-1.898-4.476-1.54-7.141c0.317-2.363,0.604-4.638,0.841-6.301c-0.786-1.977-4.453-2.989-6.582-1.541
		c-0.694,3.693,2.429,13.09-1.959,12.883c-1.101-0.053-1.288-0.56-1.961-1.261c-0.162-5.021,0.485-9.964,0.279-14.563
		c-0.994-1.868-4.613-2.566-6.58-1.12C78.441,90.831,78.53,92.992,78.851,96.897z"/>
</g>
<path fill="#FFFFFF" d="M5.575,52.333C2.494,52.331,0.002,49.839,0,46.76l0,0V32.409c0.002-3.081,2.494-5.573,5.575-5.575l0,0h14.35
	c3.081,0.002,5.571,2.494,5.576,5.575l0,0V46.76h-0.002c-0.002,3.079-2.492,5.571-5.573,5.573l0,0H5.575L5.575,52.333z M18.5,45.334
	V33.833H7L6.999,45.334H18.5L18.5,45.334z"/>
<path fill="#FFFFFF" d="M120.573,52.333c-3.081-0.002-5.571-2.492-5.575-5.573l0,0L115,32.408c0.002-3.081,2.492-5.571,5.573-5.573
	l0,0h14.352c3.081,0.002,5.571,2.492,5.575,5.573l0,0V46.76h-0.002c-0.002,3.081-2.492,5.571-5.573,5.573l0,0H120.573
	L120.573,52.333z M133.499,45.333l0.001-11.499h-11.501l-0.001,11.499H133.499L133.499,45.333z"/>
</svg>
