<?xml version="1.0" encoding="utf-8"?>
<!-- Generator: Adobe Illustrator 13.0.0, SVG Export Plug-In . SVG Version: 6.00 Build 14948)  -->
<svg version="1.2" baseProfile="tiny" id="Layer_1" xmlns="http://www.w3.org/2000/svg" xmlns:xlink="http://www.w3.org/1999/xlink"
	 x="0px" y="0px" width="140px" height="140px" viewBox="0 0 140 140" xml:space="preserve">
<g>
	<path fill-rule="evenodd" fill="#FFFFFF" d="M140,63.109c0,2.333,0,4.667,0,7c-2.891,25.67-16.176,40.944-36.54,49.141
		c0.004-4.196-0.056-8.456,0.14-12.46c12.095-6.915,21.479-16.352,24.08-32.2c2.887-17.583-4.015-31.868-13.859-40.88
		c-9.18-8.404-26.131-14.831-42.98-9.52c-14.096,4.442-23.59,14.272-28.979,27.44c-1.838-4.789-3.944-9.31-5.74-14.14
		c5.755-9.199,13.551-16.826,24.08-21.56c10.208-4.59,25.198-7.188,38.64-3.22C121.755,19.475,136.837,36.772,140,63.109z"/>
	<path fill-rule="evenodd" fill="#FFFFFF" d="M88.061,63.109c2.656,0.982,5.411,1.591,8.26,2.38c4.547,1.26,11.662,1.876,10.22,8.4
		c-1.652,7.474-11.259,3.215-16.66,1.68c-1.758-0.499-3.821-0.995-5.88-1.54c-3.093-0.818-5.669-1.282-6.859-3.78
		c-0.959-2.011-0.561-5.701-0.561-8.4c0-6.088,0-11.424,0-17.92c0-6.103-0.098-9.965,5.18-10.64c2.451-0.313,4.848,1.224,5.74,3.22
		c1.287,2.875,0.561,8.395,0.561,13.02C88.06,54.498,88.061,59.283,88.061,63.109z"/>
	<path fill-rule="evenodd" fill="#FFFFFF" d="M0,53.31c0-1.494,0-2.987,0-4.48c0.605-1.532,0.74-3.124,1.4-4.34
		c0.928-1.712,3.124-3.685,4.899-5.46c3.242-3.242,7.477-7.16,13.16-5.18c3.232,1.126,5.897,4.143,8.12,7
		c2.282,2.935,4.537,5.909,5.46,9.66c1.208,4.907-1.466,7.973-3.64,10.36c-1.298,1.425-3.617,2.822-4.061,4.76
		c-0.317,1.39,0.137,2.83,0.561,4.06c1.473,4.28,4.507,7.604,7.14,10.78c2.75,3.317,5.171,5.805,8.68,9.24
		c4.136,4.048,9.132,9.021,14.7,12.18c1.992,1.13,4.785,2.455,7,2.1c1.826-0.292,3.224-2.34,4.48-3.5
		c1.366-1.261,2.881-2.846,4.479-3.64c5.54-2.752,11.604,1.388,15.26,4.2c2.809,2.16,5.518,4.512,7.001,7.14
		c0.926,1.644,1.693,4.388,1.119,6.86c-0.791,3.406-3.463,5.735-5.88,8.12c-1.869,1.844-3.373,3.882-5.46,4.899
		c-5.172,2.523-13.739,0.435-18.76-1.26c-5.276-1.78-9.363-4.18-13.44-6.439c-8.681-4.813-16.061-10.776-22.54-17.221
		c-6.57-6.535-13.078-13.731-18.06-21.699C6.563,73.359,1.634,64.985,0,53.31z M12.6,40.009c-2.707,2.533-6.068,5.304-7.14,9.52
		c-1.456,5.735,1.476,10.896,4.06,14.84c-0.278-2.392-0.884-4.449-0.84-6.86c0.109-5.89,3.771-8.628,8.54-10.22
		C15.891,44.652,14.265,42.312,12.6,40.009z M80.78,112.39c-1.473,4.741-3.553,7.993-8.54,8.96c-2.436,0.473-5.232-0.143-7.98,0
		c3.583,1.767,7.599,3.848,12.46,3.22c5.457-0.704,9.144-4.572,11.62-8.119C85.804,115.112,83.522,113.521,80.78,112.39z"/>
</g>
<rect fill-rule="evenodd" fill="none" width="140" height="140"/>
</svg>
