<?xml version="1.0" encoding="utf-8"?>
<!-- Generator: Adobe Illustrator 13.0.0, SVG Export Plug-In . SVG Version: 6.00 Build 14948)  -->
<svg version="1.2" baseProfile="tiny" id="Layer_1" xmlns="http://www.w3.org/2000/svg" xmlns:xlink="http://www.w3.org/1999/xlink"
	 x="0px" y="0px" width="140px" height="140px" viewBox="0 0 140 140" xml:space="preserve">
<g>
	<path fill-rule="evenodd" fill="#FFFFFF" d="M61.096,10.924c19.635-1.535,34.953,13.41,35.068,32.329
		c0.07,11.441-4.98,19.539-10.685,24.657c-8.992,8.068-24.237,11.245-36.712,5.206c-9.621-4.658-18.271-15.209-18.356-29.315
		c-0.062-10.168,4.181-17.558,9.041-22.739C44.713,15.451,50.416,11.76,61.096,10.924z M39.178,41.062
		C37.479,60.546,56.562,72.73,72.603,65.992c8.612-3.617,16.048-12.365,14.794-25.205C86.146,27.96,74.832,18.015,60.274,19.691
		C49.039,20.985,40.137,30.069,39.178,41.062z"/>
	<path fill-rule="evenodd" fill="#FFFFFF" d="M65.479,24.349c0,1.188,0,2.375,0,3.562c3.013,0.731,6.62,0.868,8.767,2.466
		c-0.389,1.986-0.986,3.763-1.644,5.479c-2.266-0.155-12.595-3.95-13.424,0.274c-0.569,2.897,4.155,3.566,6.849,4.657
		c3.552,1.438,7.855,3.619,8.219,8.219c0.387,4.878-2.859,8.79-8.767,9.863c-0.046,1.415,0.169,3.092-0.274,4.109
		c-0.971,0.397-2.865,0.397-3.836,0c-0.551-0.818-0.155-2.585-0.274-3.835c-3.127-0.709-6.607-1.063-8.767-2.74
		c0.489-2.067,0.932-4.183,1.918-5.753c2.519,1.469,12.879,4.35,13.425-0.274c0.642-5.444-14.82-4.667-15.343-12.877
		c-0.29-4.557,2.968-8.33,8.767-9.314C59.937,24.414,62.868,22.619,65.479,24.349z"/>
	<path fill-rule="evenodd" fill="#FFFFFF" d="M40,82.979c-1.224,0.329-2.198,0.907-3.014,1.645
		c-6.275-5.324-11.417-11.779-18.63-16.165c4.131-2.495,9.921,2.522,13.151,5.479C34.906,77.05,37.799,80.421,40,82.979z"/>
	<path fill-rule="evenodd" fill="#FFFFFF" d="M33.425,87.91c-0.576,1.525-1.599,2.603-1.918,4.384
		c-7.29-5.952-12.715-13.77-21.096-18.63c3.957-4.526,10.57,2.065,13.973,5.205C28.045,82.249,31.044,85.349,33.425,87.91z"/>
	<path fill-rule="evenodd" fill="#FFFFFF" d="M140,75.033c0,15.525,0,31.051,0,46.576c-0.58,1.434-1.583,2.649-3.287,3.014
		c-3.33,0.71-15.658,0.522-17.261-0.822c-1.948-1.633-1.37-7.518-1.37-12.603c0-8.975,0-17.045,0-25.754
		c0-3.6-0.627-10.327,0.822-12.055c1.466-1.748,5.1-1.37,9.314-1.37C133.951,72.02,139.275,71.157,140,75.033z"/>
	<path fill-rule="evenodd" fill="#FFFFFF" d="M0,85.992c0-1.826,0-3.652,0-5.479c4.313-9.57,14.625,1.475,18.904,5.754
		c4.773,4.773,8.696,8.808,12.329,12.329c1.481,7,6.756,12.053,14.794,12.876c11.488,1.177,27.652,0.041,37.534-1.644
		c-13.409-7.495-45.218,4.363-48.493-11.781c-0.242-1.192-0.422-2.745,0-4.383c2.416-9.36,13.568-8.493,25.206-8.493
		c4.316,0,9.813,0.961,13.425,0c1.329-0.354,2.393-2.032,3.835-3.014c8.702-5.926,27.935-7.778,36.165,0c0,11.05,0,22.101,0,33.15
		c-3.955,0.174-7.713,0.072-11.233,0.822c-12.524,2.665-22.737,11.899-35.617,12.876c-13.503,1.024-30.672-2.495-38.904-7.123
		c-5.71-3.209-9.807-9.321-14.247-14.794C8.183,100.289,2.597,94.572,0,85.992z"/>
</g>
<rect fill-rule="evenodd" fill="none" width="140" height="140"/>
</svg>
